<svg width="2028" height="1080" viewBox="0 0 2028 1080" fill="none" xmlns="http://www.w3.org/2000/svg">
<rect width="2028" height="1080" fill="#BBCAB0"/>
<path d="M1316.42 591V547.233H1225.5V521.82C1226.44 519.937 1227.76 517.678 1229.45 515.043C1231.33 512.219 1233.4 509.019 1235.66 505.442L1305.13 404.636H1351.72V518.996H1381.93V547.233H1351.72V591H1316.42ZM1258.82 518.996H1316.7V457.439C1316.7 453.486 1316.8 449.251 1316.98 444.733C1317.17 440.215 1317.36 435.791 1317.55 431.462H1316.98C1314.91 435.603 1312.37 440.121 1309.36 445.015C1306.54 449.721 1303.9 453.957 1301.45 457.722L1262.49 513.631C1261.92 514.572 1261.26 515.513 1260.51 516.455C1259.95 517.208 1259.38 518.055 1258.82 518.996ZM1424.8 591L1550.45 404.636H1581.51L1455.86 591H1424.8ZM1434.11 401.813C1444.28 401.813 1453.03 403.978 1460.38 408.307C1467.91 412.637 1473.65 418.755 1477.6 426.661C1481.74 434.568 1483.81 443.792 1483.81 454.333C1483.81 464.875 1481.74 474.099 1477.6 482.006C1473.65 489.724 1467.91 495.842 1460.38 500.36C1453.03 504.689 1444.28 506.854 1434.11 506.854C1424.14 506.854 1415.38 504.689 1407.85 500.36C1400.32 495.842 1394.49 489.724 1390.35 482.006C1386.39 474.099 1384.42 464.875 1384.42 454.333C1384.42 443.792 1386.39 434.568 1390.35 426.661C1394.49 418.755 1400.32 412.637 1407.85 408.307C1415.38 403.978 1424.14 401.813 1434.11 401.813ZM1434.11 428.638C1429.97 428.638 1426.4 429.673 1423.38 431.744C1420.37 433.626 1418.11 436.544 1416.61 440.497C1415.1 444.262 1414.35 448.874 1414.35 454.333C1414.35 459.604 1415.1 464.216 1416.61 468.17C1418.11 471.934 1420.37 474.852 1423.38 476.923C1426.4 478.805 1429.97 479.747 1434.11 479.747C1438.44 479.747 1442.02 478.805 1444.85 476.923C1447.86 474.852 1450.12 471.934 1451.62 468.17C1453.13 464.216 1453.88 459.604 1453.88 454.333C1453.88 448.874 1453.13 444.262 1451.62 440.497C1450.12 436.544 1447.86 433.626 1444.85 431.744C1442.02 429.673 1438.44 428.638 1434.11 428.638ZM1571.91 488.782C1581.89 488.782 1590.55 491.041 1597.89 495.559C1605.42 499.889 1611.25 506.007 1615.4 513.913C1619.54 521.631 1621.61 530.761 1621.61 541.303C1621.61 551.845 1619.54 561.069 1615.4 568.975C1611.25 576.882 1605.42 583 1597.89 587.329C1590.55 591.659 1581.89 593.824 1571.91 593.824C1561.93 593.824 1553.18 591.659 1545.65 587.329C1538.12 583 1532.29 576.882 1528.14 568.975C1524.19 561.069 1522.21 551.845 1522.21 541.303C1522.21 530.761 1524.19 521.631 1528.14 513.913C1532.29 506.007 1538.12 499.889 1545.65 495.559C1553.18 491.041 1561.93 488.782 1571.91 488.782ZM1571.91 515.89C1567.58 515.89 1563.91 516.925 1560.9 518.996C1558.08 520.878 1555.91 523.702 1554.4 527.467C1552.9 531.232 1552.15 535.844 1552.15 541.303C1552.15 546.574 1552.9 551.186 1554.4 555.139C1555.91 559.092 1558.08 562.104 1560.9 564.175C1563.91 566.058 1567.58 566.999 1571.91 566.999C1576.24 566.999 1579.82 566.058 1582.64 564.175C1585.65 562.104 1587.91 559.092 1589.42 555.139C1590.92 551.186 1591.68 546.574 1591.68 541.303C1591.68 535.844 1590.92 531.232 1589.42 527.467C1587.91 523.702 1585.65 520.878 1582.64 518.996C1579.82 516.925 1576.24 515.89 1571.91 515.89Z" fill="black"/>
<path opacity="0.3" d="M1217.85 689.936V676.308H1212.73V674.588H1225V676.308H1219.89V689.936H1217.85ZM1228.61 674.588V680.456H1228.66C1229.26 679.124 1230.83 678.565 1232.16 678.565C1235.08 678.565 1235.99 680.241 1235.99 682.627V689.936H1234.16V682.412C1234.16 681.058 1233.3 680.177 1231.9 680.177C1229.69 680.177 1228.61 681.66 1228.61 683.659V689.936H1226.79V674.588H1228.61ZM1243.25 690.194C1240.09 690.194 1238.03 687.915 1238.03 684.39C1238.03 680.886 1240.03 678.565 1243.19 678.565C1246.35 678.565 1248.26 680.886 1248.26 684.39C1248.26 684.583 1248.26 684.777 1248.24 684.97H1239.9C1240.09 687.077 1241.23 688.603 1243.25 688.603C1244.67 688.603 1245.74 687.808 1246.26 686.389H1248.15C1247.53 688.753 1245.76 690.194 1243.25 690.194ZM1239.96 683.337H1246.35C1246.04 681.338 1244.88 680.134 1243.19 680.134C1241.34 680.134 1240.24 681.488 1239.96 683.337ZM1259.59 690.194C1256.49 690.194 1254.8 688.431 1254.8 686.389H1256.71C1256.84 687.808 1257.76 688.646 1259.59 688.646C1261.2 688.646 1262.28 688.001 1262.28 686.948C1262.28 686.196 1261.63 685.68 1260.3 685.4L1258.39 684.992C1256.13 684.519 1255.08 683.38 1255.08 681.875C1255.08 679.897 1256.77 678.565 1259.37 678.565C1262.13 678.565 1263.82 680.177 1263.89 682.24H1262C1261.85 680.671 1260.79 680.048 1259.37 680.048C1257.89 680.048 1256.9 680.757 1256.9 681.746C1256.9 682.52 1257.61 683.036 1258.94 683.294L1260.86 683.659C1263.27 684.11 1264.17 685.207 1264.17 686.819C1264.17 688.796 1262.34 690.194 1259.59 690.194ZM1271 678.565C1274.53 678.565 1276.4 681.123 1276.4 684.39C1276.4 687.636 1274.53 690.194 1271 690.194C1267.48 690.194 1265.61 687.636 1265.61 684.39C1265.61 681.123 1267.48 678.565 1271 678.565ZM1267.54 684.39C1267.54 687.077 1269.09 688.582 1271 688.582C1272.92 688.582 1274.47 687.077 1274.47 684.39C1274.47 681.682 1272.92 680.177 1271 680.177C1269.09 680.177 1267.54 681.682 1267.54 684.39ZM1278.49 689.936V674.588H1280.32V689.936H1278.49ZM1286.17 690.194C1283.87 690.194 1282.47 688.925 1282.47 686.862C1282.47 684.777 1284.06 683.81 1286.96 683.573C1289.11 683.401 1290.1 683.1 1290.1 682.025C1290.1 680.865 1289.02 680.155 1287.56 680.155C1286.02 680.155 1284.92 680.779 1284.79 682.348H1282.92C1282.92 680.284 1284.85 678.565 1287.56 678.565C1290.01 678.565 1291.93 679.79 1291.93 682.219V688.324H1292.72V689.936H1291.45C1290.77 689.936 1290.19 689.355 1290.19 688.668V688.238H1290.14C1289.2 689.506 1287.63 690.194 1286.17 690.194ZM1284.38 686.862C1284.38 687.98 1285.33 688.539 1286.51 688.539C1288.42 688.539 1290.14 687.27 1290.14 685.142V684.196C1289.43 684.691 1288.42 684.841 1287.33 684.949C1285.44 685.142 1284.38 685.68 1284.38 686.862ZM1300.76 678.823V680.564H1299.62C1297.71 680.564 1296.44 681.832 1296.44 684.669V689.936H1294.59V678.823H1296.4V681.058H1296.44C1297.28 679.639 1298.44 678.823 1299.86 678.823H1300.76ZM1311.67 690.194C1308.57 690.194 1306.88 688.431 1306.88 686.389H1308.79C1308.92 687.808 1309.84 688.646 1311.67 688.646C1313.28 688.646 1314.36 688.001 1314.36 686.948C1314.36 686.196 1313.71 685.68 1312.38 685.4L1310.47 684.992C1308.21 684.519 1307.16 683.38 1307.16 681.875C1307.16 679.897 1308.85 678.565 1311.45 678.565C1314.21 678.565 1315.9 680.177 1315.97 682.24H1314.08C1313.93 680.671 1312.87 680.048 1311.45 680.048C1309.97 680.048 1308.98 680.757 1308.98 681.746C1308.98 682.52 1309.69 683.036 1311.02 683.294L1312.94 683.659C1315.35 684.11 1316.25 685.207 1316.25 686.819C1316.25 688.796 1314.42 690.194 1311.67 690.194ZM1320.01 674.588V680.456H1320.05C1320.66 679.124 1322.23 678.565 1323.56 678.565C1326.48 678.565 1327.38 680.241 1327.38 682.627V689.936H1325.56V682.412C1325.56 681.058 1324.7 680.177 1323.3 680.177C1321.09 680.177 1320.01 681.66 1320.01 683.659V689.936H1318.18V674.588H1320.01ZM1333.04 690.194C1330.74 690.194 1329.34 688.925 1329.34 686.862C1329.34 684.777 1330.93 683.81 1333.84 683.573C1335.98 683.401 1336.97 683.1 1336.97 682.025C1336.97 680.865 1335.9 680.155 1334.44 680.155C1332.89 680.155 1331.79 680.779 1331.66 682.348H1329.79C1329.79 680.284 1331.73 678.565 1334.44 678.565C1336.89 678.565 1338.8 679.79 1338.8 682.219V688.324H1339.6V689.936H1338.33C1337.64 689.936 1337.06 689.355 1337.06 688.668V688.238H1337.02C1336.07 689.506 1334.5 690.194 1333.04 690.194ZM1331.26 686.862C1331.26 687.98 1332.2 688.539 1333.38 688.539C1335.3 688.539 1337.02 687.27 1337.02 685.142V684.196C1336.31 684.691 1335.3 684.841 1334.2 684.949C1332.31 685.142 1331.26 685.68 1331.26 686.862ZM1347.63 678.823V680.564H1346.49C1344.58 680.564 1343.31 681.832 1343.31 684.669V689.936H1341.46V678.823H1343.27V681.058H1343.31C1344.15 679.639 1345.31 678.823 1346.73 678.823H1347.63ZM1353.29 690.194C1350.13 690.194 1348.06 687.915 1348.06 684.39C1348.06 680.886 1350.06 678.565 1353.22 678.565C1356.38 678.565 1358.3 680.886 1358.3 684.39C1358.3 684.583 1358.3 684.777 1358.27 684.97H1349.93C1350.13 687.077 1351.27 688.603 1353.29 688.603C1354.71 688.603 1355.78 687.808 1356.3 686.389H1358.19C1357.57 688.753 1355.8 690.194 1353.29 690.194ZM1350 683.337H1356.38C1356.08 681.338 1354.92 680.134 1353.22 680.134C1351.37 680.134 1350.28 681.488 1350 683.337ZM1370.34 678.565C1373.86 678.565 1375.73 681.123 1375.73 684.39C1375.73 687.636 1373.86 690.194 1370.34 690.194C1366.81 690.194 1364.94 687.636 1364.94 684.39C1364.94 681.123 1366.81 678.565 1370.34 678.565ZM1366.88 684.39C1366.88 687.077 1368.42 688.582 1370.34 688.582C1372.25 688.582 1373.8 687.077 1373.8 684.39C1373.8 681.682 1372.25 680.177 1370.34 680.177C1368.42 680.177 1366.88 681.682 1366.88 684.39ZM1378.52 689.936V680.435H1376.82V678.823H1378.52V676.415C1378.52 675.405 1379.33 674.588 1380.34 674.588H1382.67V676.2H1380.34V678.823H1382.67V680.435H1380.34V689.936H1378.52ZM1392.22 689.936C1391.53 689.936 1390.95 689.355 1390.95 688.668V680.435H1388.95V678.823H1390.95L1391.45 675.491H1392.78V678.823H1395.1V680.435H1392.78V688.324H1395.1V689.936H1392.22ZM1401.68 678.565C1405.2 678.565 1407.07 681.123 1407.07 684.39C1407.07 687.636 1405.2 690.194 1401.68 690.194C1398.15 690.194 1396.28 687.636 1396.28 684.39C1396.28 681.123 1398.15 678.565 1401.68 678.565ZM1398.22 684.39C1398.22 687.077 1399.76 688.582 1401.68 688.582C1403.59 688.582 1405.14 687.077 1405.14 684.39C1405.14 681.682 1403.59 680.177 1401.68 680.177C1399.76 680.177 1398.22 681.682 1398.22 684.39ZM1411.05 689.936C1410.36 689.936 1409.78 689.355 1409.78 688.668V680.435H1407.78V678.823H1409.78L1410.28 675.491H1411.61V678.823H1413.93V680.435H1411.61V688.324H1413.93V689.936H1411.05ZM1419.15 690.194C1416.85 690.194 1415.45 688.925 1415.45 686.862C1415.45 684.777 1417.04 683.81 1419.94 683.573C1422.09 683.401 1423.08 683.1 1423.08 682.025C1423.08 680.865 1422.01 680.155 1420.54 680.155C1419 680.155 1417.9 680.779 1417.77 682.348H1415.9C1415.9 680.284 1417.84 678.565 1420.54 678.565C1422.99 678.565 1424.91 679.79 1424.91 682.219V688.324H1425.7V689.936H1424.44C1423.75 689.936 1423.17 689.355 1423.17 688.668V688.238H1423.12C1422.18 689.506 1420.61 690.194 1419.15 690.194ZM1417.36 686.862C1417.36 687.98 1418.31 688.539 1419.49 688.539C1421.4 688.539 1423.12 687.27 1423.12 685.142V684.196C1422.41 684.691 1421.4 684.841 1420.31 684.949C1418.42 685.142 1417.36 685.68 1417.36 686.862ZM1427.61 689.936V674.588H1429.44V689.936H1427.61ZM1441.79 690.194C1438.63 690.194 1436.56 687.915 1436.56 684.39C1436.56 680.886 1438.56 678.565 1441.72 678.565C1444.88 678.565 1446.8 680.886 1446.8 684.39C1446.8 684.583 1446.8 684.777 1446.77 684.97H1438.43C1438.63 687.077 1439.77 688.603 1441.79 688.603C1443.21 688.603 1444.28 687.808 1444.8 686.389H1446.69C1446.07 688.753 1444.3 690.194 1441.79 690.194ZM1438.5 683.337H1444.88C1444.58 681.338 1443.42 680.134 1441.72 680.134C1439.87 680.134 1438.78 681.488 1438.5 683.337ZM1448.94 689.936V674.588H1450.77V689.936H1448.94ZM1458.08 690.194C1454.92 690.194 1452.85 687.915 1452.85 684.39C1452.85 680.886 1454.85 678.565 1458.01 678.565C1461.17 678.565 1463.09 680.886 1463.09 684.39C1463.09 684.583 1463.09 684.777 1463.06 684.97H1454.72C1454.92 687.077 1456.06 688.603 1458.08 688.603C1459.5 688.603 1460.57 687.808 1461.09 686.389H1462.98C1462.35 688.753 1460.59 690.194 1458.08 690.194ZM1454.79 683.337H1461.17C1460.87 681.338 1459.71 680.134 1458.01 680.134C1456.16 680.134 1455.07 681.488 1454.79 683.337ZM1469.68 690.194C1466.52 690.194 1464.52 687.937 1464.52 684.39C1464.52 680.865 1466.52 678.565 1469.68 678.565C1472.24 678.565 1474.07 680.112 1474.63 682.649H1472.76C1472.28 680.994 1471.19 680.134 1469.68 680.134C1467.68 680.134 1466.37 681.768 1466.37 684.39C1466.37 687.055 1467.68 688.603 1469.68 688.603C1471.19 688.603 1472.35 687.786 1472.82 686.11H1474.71C1474.13 688.668 1472.24 690.194 1469.68 690.194ZM1478.68 689.936C1478 689.936 1477.42 689.355 1477.42 688.668V680.435H1475.42V678.823H1477.42L1477.91 675.491H1479.24V678.823H1481.56V680.435H1479.24V688.324H1481.56V689.936H1478.68ZM1489.77 678.823V680.564H1488.63C1486.71 680.564 1485.45 681.832 1485.45 684.669V689.936H1483.6V678.823H1485.4V681.058H1485.45C1486.28 679.639 1487.44 678.823 1488.86 678.823H1489.77ZM1491.53 689.936V678.823H1493.36V689.936H1491.53ZM1491.32 676.824V674.588H1493.58V676.824H1491.32ZM1500.58 690.194C1497.42 690.194 1495.42 687.937 1495.42 684.39C1495.42 680.865 1497.42 678.565 1500.58 678.565C1503.14 678.565 1504.97 680.112 1505.53 682.649H1503.66C1503.18 680.994 1502.09 680.134 1500.58 680.134C1498.58 680.134 1497.27 681.768 1497.27 684.39C1497.27 687.055 1498.58 688.603 1500.58 688.603C1502.09 688.603 1503.25 687.786 1503.72 686.11H1505.61C1505.03 688.668 1503.14 690.194 1500.58 690.194ZM1507.7 689.936V678.823H1509.52V689.936H1507.7ZM1507.48 676.824V674.588H1509.74V676.824H1507.48ZM1514.24 689.936C1513.56 689.936 1512.98 689.355 1512.98 688.668V680.435H1510.98V678.823H1512.98L1513.47 675.491H1514.8V678.823H1517.12V680.435H1514.8V688.324H1517.12V689.936H1514.24ZM1519.01 694.192V692.601H1521.31L1522.37 689.936L1518.05 678.823H1520.09L1523.25 687.657H1523.29L1526.47 678.823H1528.45L1522.97 693.031C1522.71 693.697 1521.98 694.192 1521.27 694.192H1519.01ZM1539.73 694.514C1536.87 694.514 1535.35 693.353 1534.81 690.903H1536.72C1537.15 692.3 1538.12 692.924 1539.73 692.924C1542.33 692.924 1543.13 691.44 1543.13 688.668V688.066H1543.11C1542.5 689.42 1541.04 690.086 1539.64 690.086C1536.33 690.086 1534.68 687.464 1534.68 684.433C1534.68 681.81 1535.97 678.565 1539.82 678.565C1541.21 678.565 1542.46 679.21 1543.13 680.413H1543.15V678.823H1544.87V689.57C1544.87 692.795 1542.87 694.514 1539.73 694.514ZM1536.61 684.239C1536.61 686.239 1537.34 688.453 1539.75 688.453C1542.16 688.453 1543.06 686.26 1543.06 684.153C1543.06 682.219 1542.2 680.198 1539.9 680.198C1537.56 680.198 1536.61 682.09 1536.61 684.239ZM1552.14 690.194C1548.98 690.194 1546.92 687.915 1546.92 684.39C1546.92 680.886 1548.92 678.565 1552.08 678.565C1555.24 678.565 1557.15 680.886 1557.15 684.39C1557.15 684.583 1557.15 684.777 1557.13 684.97H1548.79C1548.98 687.077 1550.12 688.603 1552.14 688.603C1553.56 688.603 1554.63 687.808 1555.15 686.389H1557.04C1556.42 688.753 1554.66 690.194 1552.14 690.194ZM1548.85 683.337H1555.24C1554.93 681.338 1553.77 680.134 1552.08 680.134C1550.23 680.134 1549.13 681.488 1548.85 683.337ZM1560.97 678.823V680.585H1561.01C1561.79 679.21 1563.03 678.565 1564.62 678.565C1567.55 678.565 1568.45 680.241 1568.45 682.627V689.936H1566.62V682.412C1566.62 681.058 1565.76 680.177 1564.37 680.177C1562.15 680.177 1561.08 681.66 1561.08 683.659V689.936H1559.25V678.823H1560.97ZM1575.71 690.194C1572.55 690.194 1570.49 687.915 1570.49 684.39C1570.49 680.886 1572.49 678.565 1575.65 678.565C1578.81 678.565 1580.72 680.886 1580.72 684.39C1580.72 684.583 1580.72 684.777 1580.7 684.97H1572.36C1572.55 687.077 1573.69 688.603 1575.71 688.603C1577.13 688.603 1578.21 687.808 1578.72 686.389H1580.61C1579.99 688.753 1578.23 690.194 1575.71 690.194ZM1572.43 683.337H1578.81C1578.51 681.338 1577.35 680.134 1575.65 680.134C1573.8 680.134 1572.7 681.488 1572.43 683.337ZM1588.99 678.823V680.564H1587.85C1585.94 680.564 1584.67 681.832 1584.67 684.669V689.936H1582.82V678.823H1584.63V681.058H1584.67C1585.51 679.639 1586.67 678.823 1588.09 678.823H1588.99ZM1593.36 690.194C1591.06 690.194 1589.66 688.925 1589.66 686.862C1589.66 684.777 1591.25 683.81 1594.15 683.573C1596.3 683.401 1597.29 683.1 1597.29 682.025C1597.29 680.865 1596.21 680.155 1594.75 680.155C1593.21 680.155 1592.11 680.779 1591.98 682.348H1590.11C1590.11 680.284 1592.04 678.565 1594.75 678.565C1597.2 678.565 1599.12 679.79 1599.12 682.219V688.324H1599.91V689.936H1598.64C1597.96 689.936 1597.38 689.355 1597.38 688.668V688.238H1597.33C1596.39 689.506 1594.82 690.194 1593.36 690.194ZM1591.57 686.862C1591.57 687.98 1592.52 688.539 1593.7 688.539C1595.61 688.539 1597.33 687.27 1597.33 685.142V684.196C1596.62 684.691 1595.61 684.841 1594.52 684.949C1592.63 685.142 1591.57 685.68 1591.57 686.862ZM1603.77 689.936C1603.08 689.936 1602.5 689.355 1602.5 688.668V680.435H1600.5V678.823H1602.5L1603 675.491H1604.33V678.823H1606.65V680.435H1604.33V688.324H1606.65V689.936H1603.77ZM1608.77 689.936V678.823H1610.6V689.936H1608.77ZM1608.56 676.824V674.588H1610.81V676.824H1608.56ZM1618.12 678.565C1621.65 678.565 1623.52 681.123 1623.52 684.39C1623.52 687.636 1621.65 690.194 1618.12 690.194C1614.6 690.194 1612.73 687.636 1612.73 684.39C1612.73 681.123 1614.6 678.565 1618.12 678.565ZM1614.66 684.39C1614.66 687.077 1616.21 688.582 1618.12 688.582C1620.03 688.582 1621.58 687.077 1621.58 684.39C1621.58 681.682 1620.03 680.177 1618.12 680.177C1616.21 680.177 1614.66 681.682 1614.66 684.39ZM1627.28 678.823V680.585H1627.33C1628.1 679.21 1629.35 678.565 1630.94 678.565C1633.86 678.565 1634.76 680.241 1634.76 682.627V689.936H1632.94V682.412C1632.94 681.058 1632.08 680.177 1630.68 680.177C1628.46 680.177 1627.39 681.66 1627.39 683.659V689.936H1625.56V678.823H1627.28ZM1213.35 715.936V704.823H1215.18V715.936H1213.35ZM1213.14 702.824V700.588H1215.4V702.824H1213.14ZM1219.52 704.823V706.585H1219.57C1220.34 705.21 1221.59 704.565 1223.18 704.565C1226.1 704.565 1227 706.241 1227 708.627V715.936H1225.18V708.412C1225.18 707.058 1224.32 706.177 1222.92 706.177C1220.7 706.177 1219.63 707.66 1219.63 709.659V715.936H1217.8V704.823H1219.52ZM1237.2 715.936C1236.51 715.936 1235.93 715.355 1235.93 714.668V706.435H1233.93V704.823H1235.93L1236.42 701.491H1237.76V704.823H1240.08V706.435H1237.76V714.324H1240.08V715.936H1237.2ZM1244 700.588V706.456H1244.04C1244.65 705.124 1246.21 704.565 1247.55 704.565C1250.47 704.565 1251.37 706.241 1251.37 708.627V715.936H1249.55V708.412C1249.55 707.058 1248.69 706.177 1247.29 706.177C1245.08 706.177 1244 707.66 1244 709.659V715.936H1242.17V700.588H1244ZM1258.64 716.194C1255.48 716.194 1253.41 713.915 1253.41 710.39C1253.41 706.886 1255.41 704.565 1258.57 704.565C1261.73 704.565 1263.65 706.886 1263.65 710.39C1263.65 710.583 1263.65 710.777 1263.62 710.97H1255.28C1255.48 713.077 1256.62 714.603 1258.64 714.603C1260.06 714.603 1261.13 713.808 1261.65 712.389H1263.54C1262.91 714.753 1261.15 716.194 1258.64 716.194ZM1255.35 709.337H1261.73C1261.43 707.338 1260.27 706.134 1258.57 706.134C1256.72 706.134 1255.63 707.488 1255.35 709.337ZM1277.28 716.301C1273.32 716.301 1270.98 714.474 1270.98 710.39V700.588H1273.02V710.39C1273.02 713.098 1274.57 714.582 1277.28 714.582C1279.86 714.582 1281.27 713.098 1281.27 710.39V700.588H1283.32V710.39C1283.32 714.259 1281.1 716.301 1277.28 716.301ZM1286.05 715.936V713.55H1288.43V715.936H1286.05ZM1297.06 716.301C1292.87 716.301 1290.89 713.915 1290.76 711.443H1292.87C1293.19 713.593 1294.61 714.582 1297.06 714.582C1299.47 714.582 1301.02 713.614 1301.02 712.024C1301.02 710.712 1300.05 709.939 1298.09 709.466L1295.49 708.842C1293.43 708.348 1291.13 707.445 1291.13 704.694C1291.13 702.093 1293.47 700.266 1296.85 700.266C1300.24 700.266 1302.54 702.2 1302.69 705.124H1300.63C1300.39 703.017 1299.08 701.985 1296.85 701.985C1294.68 701.985 1293.17 702.996 1293.17 704.543C1293.17 705.79 1294.18 706.542 1296.14 707.015L1298.74 707.639C1301.9 708.391 1303.12 709.681 1303.12 711.809C1303.12 714.689 1300.59 716.301 1297.06 716.301ZM1305.46 715.936V713.55H1307.85V715.936H1305.46ZM1315.5 715.936V704.823H1317.33V715.936H1315.5ZM1315.28 702.824V700.588H1317.54V702.824H1315.28ZM1324.14 716.194C1321.04 716.194 1319.35 714.431 1319.35 712.389H1321.26C1321.39 713.808 1322.31 714.646 1324.14 714.646C1325.75 714.646 1326.83 714.001 1326.83 712.948C1326.83 712.196 1326.18 711.68 1324.85 711.4L1322.94 710.992C1320.68 710.519 1319.62 709.38 1319.62 707.875C1319.62 705.897 1321.32 704.565 1323.92 704.565C1326.68 704.565 1328.37 706.177 1328.44 708.24H1326.55C1326.4 706.671 1325.34 706.048 1323.92 706.048C1322.44 706.048 1321.45 706.757 1321.45 707.746C1321.45 708.52 1322.16 709.036 1323.49 709.294L1325.41 709.659C1327.81 710.11 1328.72 711.207 1328.72 712.819C1328.72 714.796 1326.89 716.194 1324.14 716.194ZM1340.42 716.194C1337.26 716.194 1335.2 713.915 1335.2 710.39C1335.2 706.886 1337.2 704.565 1340.36 704.565C1343.52 704.565 1345.43 706.886 1345.43 710.39C1345.43 710.583 1345.43 710.777 1345.41 710.97H1337.07C1337.26 713.077 1338.4 714.603 1340.42 714.603C1341.84 714.603 1342.91 713.808 1343.43 712.389H1345.32C1344.7 714.753 1342.93 716.194 1340.42 716.194ZM1337.13 709.337H1343.52C1343.21 707.338 1342.05 706.134 1340.36 706.134C1338.51 706.134 1337.41 707.488 1337.13 709.337ZM1345.85 715.936L1350.05 710.089L1346.26 704.823H1348.56L1351.23 708.713L1353.89 704.823H1356.19L1352.41 710.089L1356.6 715.936H1354.32L1351.23 711.293L1348.13 715.936H1345.85ZM1357.96 720.192V704.823H1359.79V706.327H1359.83C1360.43 705.102 1361.85 704.565 1363.38 704.565C1366.8 704.565 1368.5 707.273 1368.5 710.411C1368.5 713.55 1366.82 716.194 1363.42 716.194C1362.28 716.194 1360.65 715.764 1359.83 714.453H1359.79V720.192H1357.96ZM1359.73 710.368C1359.73 712.561 1360.74 714.582 1363.23 714.582C1365.72 714.582 1366.56 712.453 1366.56 710.282C1366.56 708.197 1365.49 706.177 1363.12 706.177C1360.69 706.177 1359.73 708.262 1359.73 710.368ZM1375.27 716.194C1372.11 716.194 1370.04 713.915 1370.04 710.39C1370.04 706.886 1372.04 704.565 1375.2 704.565C1378.36 704.565 1380.27 706.886 1380.27 710.39C1380.27 710.583 1380.27 710.777 1380.25 710.97H1371.91C1372.11 713.077 1373.25 714.603 1375.27 714.603C1376.68 714.603 1377.76 713.808 1378.28 712.389H1380.17C1379.54 714.753 1377.78 716.194 1375.27 716.194ZM1371.98 709.337H1378.36C1378.06 707.338 1376.9 706.134 1375.2 706.134C1373.35 706.134 1372.26 707.488 1371.98 709.337ZM1386.87 716.194C1383.71 716.194 1381.71 713.937 1381.71 710.39C1381.71 706.865 1383.71 704.565 1386.87 704.565C1389.43 704.565 1391.26 706.112 1391.81 708.649H1389.94C1389.47 706.994 1388.38 706.134 1386.87 706.134C1384.87 706.134 1383.56 707.768 1383.56 710.39C1383.56 713.055 1384.87 714.603 1386.87 714.603C1388.38 714.603 1389.54 713.786 1390.01 712.11H1391.9C1391.32 714.668 1389.43 716.194 1386.87 716.194ZM1395.87 715.936C1395.18 715.936 1394.6 715.355 1394.6 714.668V706.435H1392.6V704.823H1394.6L1395.1 701.491H1396.43V704.823H1398.75V706.435H1396.43V714.324H1398.75V715.936H1395.87ZM1405.16 716.194C1402 716.194 1399.93 713.915 1399.93 710.39C1399.93 706.886 1401.93 704.565 1405.09 704.565C1408.25 704.565 1410.17 706.886 1410.17 710.39C1410.17 710.583 1410.17 710.777 1410.14 710.97H1401.8C1402 713.077 1403.14 714.603 1405.16 714.603C1406.58 714.603 1407.65 713.808 1408.17 712.389H1410.06C1409.44 714.753 1407.67 716.194 1405.16 716.194ZM1401.87 709.337H1408.25C1407.95 707.338 1406.79 706.134 1405.09 706.134C1403.24 706.134 1402.15 707.488 1401.87 709.337ZM1416.83 716.194C1413.41 716.194 1411.71 713.485 1411.71 710.347C1411.71 707.209 1413.39 704.565 1416.78 704.565C1417.92 704.565 1419.56 704.995 1420.37 706.306H1420.42V700.588H1422.24V715.936H1420.42V714.431H1420.37C1419.77 715.656 1418.35 716.194 1416.83 716.194ZM1413.65 710.476C1413.65 712.561 1414.72 714.582 1417.08 714.582C1419.51 714.582 1420.48 712.496 1420.48 710.39C1420.48 708.197 1419.47 706.177 1416.98 706.177C1414.48 706.177 1413.65 708.305 1413.65 710.476ZM1432.44 715.936C1431.75 715.936 1431.17 715.355 1431.17 714.668V706.435H1429.17V704.823H1431.17L1431.67 701.491H1433V704.823H1435.32V706.435H1433V714.324H1435.32V715.936H1432.44ZM1441.9 704.565C1445.42 704.565 1447.29 707.123 1447.29 710.39C1447.29 713.636 1445.42 716.194 1441.9 716.194C1438.37 716.194 1436.5 713.636 1436.5 710.39C1436.5 707.123 1438.37 704.565 1441.9 704.565ZM1438.44 710.39C1438.44 713.077 1439.98 714.582 1441.9 714.582C1443.81 714.582 1445.36 713.077 1445.36 710.39C1445.36 707.682 1443.81 706.177 1441.9 706.177C1439.98 706.177 1438.44 707.682 1438.44 710.39ZM1454.46 715.936V704.823H1456.29V715.936H1454.46ZM1454.25 702.824V700.588H1456.5V702.824H1454.25ZM1460.63 704.823V706.585H1460.67C1461.45 705.21 1462.69 704.565 1464.28 704.565C1467.21 704.565 1468.11 706.241 1468.11 708.627V715.936H1466.28V708.412C1466.28 707.058 1465.42 706.177 1464.03 706.177C1461.81 706.177 1460.74 707.66 1460.74 709.659V715.936H1458.91V704.823H1460.63ZM1475.25 716.194C1472.09 716.194 1470.09 713.937 1470.09 710.39C1470.09 706.865 1472.09 704.565 1475.25 704.565C1477.8 704.565 1479.63 706.112 1480.19 708.649H1478.32C1477.85 706.994 1476.75 706.134 1475.25 706.134C1473.25 706.134 1471.94 707.768 1471.94 710.39C1471.94 713.055 1473.25 714.603 1475.25 714.603C1476.75 714.603 1477.91 713.786 1478.38 712.11H1480.28C1479.69 714.668 1477.8 716.194 1475.25 716.194ZM1488.44 704.823V706.564H1487.3C1485.39 706.564 1484.12 707.832 1484.12 710.669V715.936H1482.27V704.823H1484.08V707.058H1484.12C1484.96 705.639 1486.12 704.823 1487.54 704.823H1488.44ZM1494.1 716.194C1490.94 716.194 1488.88 713.915 1488.88 710.39C1488.88 706.886 1490.87 704.565 1494.03 704.565C1497.19 704.565 1499.11 706.886 1499.11 710.39C1499.11 710.583 1499.11 710.777 1499.09 710.97H1490.75C1490.94 713.077 1492.08 714.603 1494.1 714.603C1495.52 714.603 1496.59 713.808 1497.11 712.389H1499C1498.38 714.753 1496.61 716.194 1494.1 716.194ZM1490.81 709.337H1497.19C1496.89 707.338 1495.73 706.134 1494.03 706.134C1492.19 706.134 1491.09 707.488 1490.81 709.337ZM1504.23 716.194C1501.93 716.194 1500.53 714.925 1500.53 712.862C1500.53 710.777 1502.12 709.81 1505.02 709.573C1507.17 709.401 1508.16 709.1 1508.16 708.025C1508.16 706.865 1507.08 706.155 1505.62 706.155C1504.08 706.155 1502.98 706.779 1502.85 708.348H1500.98C1500.98 706.284 1502.91 704.565 1505.62 704.565C1508.07 704.565 1509.99 705.79 1509.99 708.219V714.324H1510.78V715.936H1509.51C1508.83 715.936 1508.25 715.355 1508.25 714.668V714.238H1508.2C1507.26 715.506 1505.69 716.194 1504.23 716.194ZM1502.44 712.862C1502.44 713.98 1503.39 714.539 1504.57 714.539C1506.48 714.539 1508.2 713.27 1508.2 711.142V710.196C1507.49 710.691 1506.48 710.841 1505.39 710.949C1503.5 711.142 1502.44 711.68 1502.44 712.862ZM1516.84 716.194C1513.75 716.194 1512.05 714.431 1512.05 712.389H1513.96C1514.09 713.808 1515.01 714.646 1516.84 714.646C1518.45 714.646 1519.53 714.001 1519.53 712.948C1519.53 712.196 1518.88 711.68 1517.55 711.4L1515.64 710.992C1513.38 710.519 1512.33 709.38 1512.33 707.875C1512.33 705.897 1514.03 704.565 1516.63 704.565C1519.38 704.565 1521.08 706.177 1521.14 708.24H1519.25C1519.1 706.671 1518.04 706.048 1516.63 706.048C1515.14 706.048 1514.15 706.757 1514.15 707.746C1514.15 708.52 1514.86 709.036 1516.2 709.294L1518.11 709.659C1520.52 710.11 1521.42 711.207 1521.42 712.819C1521.42 714.796 1519.59 716.194 1516.84 716.194ZM1528.08 716.194C1524.92 716.194 1522.86 713.915 1522.86 710.39C1522.86 706.886 1524.86 704.565 1528.02 704.565C1531.18 704.565 1533.09 706.886 1533.09 710.39C1533.09 710.583 1533.09 710.777 1533.07 710.97H1524.73C1524.92 713.077 1526.06 714.603 1528.08 714.603C1529.5 714.603 1530.58 713.808 1531.09 712.389H1532.99C1532.36 714.753 1530.6 716.194 1528.08 716.194ZM1524.8 709.337H1531.18C1530.88 707.338 1529.72 706.134 1528.02 706.134C1526.17 706.134 1525.07 707.488 1524.8 709.337ZM1542.85 715.936C1542.17 715.936 1541.59 715.355 1541.59 714.668V706.435H1539.59V704.823H1541.59L1542.08 701.491H1543.41V704.823H1545.74V706.435H1543.41V714.324H1545.74V715.936H1542.85ZM1552.31 704.565C1555.84 704.565 1557.71 707.123 1557.71 710.39C1557.71 713.636 1555.84 716.194 1552.31 716.194C1548.79 716.194 1546.92 713.636 1546.92 710.39C1546.92 707.123 1548.79 704.565 1552.31 704.565ZM1548.85 710.39C1548.85 713.077 1550.4 714.582 1552.31 714.582C1554.23 714.582 1555.77 713.077 1555.77 710.39C1555.77 707.682 1554.23 706.177 1552.31 706.177C1550.4 706.177 1548.85 707.682 1548.85 710.39ZM1569.69 704.565C1573.22 704.565 1575.09 707.123 1575.09 710.39C1575.09 713.636 1573.22 716.194 1569.69 716.194C1566.17 716.194 1564.3 713.636 1564.3 710.39C1564.3 707.123 1566.17 704.565 1569.69 704.565ZM1566.23 710.39C1566.23 713.077 1567.78 714.582 1569.69 714.582C1571.61 714.582 1573.15 713.077 1573.15 710.39C1573.15 707.682 1571.61 706.177 1569.69 706.177C1567.78 706.177 1566.23 707.682 1566.23 710.39ZM1578.86 704.823V706.585H1578.9C1579.67 705.21 1580.92 704.565 1582.51 704.565C1585.43 704.565 1586.34 706.241 1586.34 708.627V715.936H1584.51V708.412C1584.51 707.058 1583.65 706.177 1582.25 706.177C1580.04 706.177 1578.96 707.66 1578.96 709.659V715.936H1577.14V704.823H1578.86ZM1588.91 715.936V700.588H1590.74V715.936H1588.91ZM1593.15 720.192V718.601H1595.45L1596.51 715.936L1592.19 704.823H1594.23L1597.39 713.657H1597.43L1600.61 704.823H1602.59L1597.11 719.031C1596.85 719.697 1596.12 720.192 1595.41 720.192H1593.15ZM1222.58 726.953V728.845L1215.4 741.936H1213.31L1220.77 728.695H1212.64L1212.62 726.953H1222.58ZM1227.55 741.936L1237.31 726.588H1239.14L1229.4 741.936H1227.55ZM1224.48 730.672C1224.48 727.534 1226.09 726.352 1227.94 726.352C1229.77 726.352 1231.4 727.534 1231.4 730.672C1231.4 733.789 1229.77 734.971 1227.94 734.971C1226.09 734.971 1224.48 733.789 1224.48 730.672ZM1226.09 730.672C1226.09 732.908 1226.91 733.789 1227.94 733.789C1228.95 733.789 1229.79 732.908 1229.79 730.672C1229.79 728.437 1228.95 727.534 1227.94 727.534C1226.91 727.534 1226.09 728.437 1226.09 730.672ZM1235.12 737.895C1235.12 734.756 1236.73 733.574 1238.58 733.574C1240.41 733.574 1242.04 734.756 1242.04 737.895C1242.04 741.011 1240.41 742.194 1238.58 742.194C1236.73 742.194 1235.12 741.011 1235.12 737.895ZM1236.73 737.895C1236.73 740.13 1237.55 741.011 1238.58 741.011C1239.59 741.011 1240.43 740.13 1240.43 737.895C1240.43 735.659 1239.59 734.756 1238.58 734.756C1237.55 734.756 1236.73 735.659 1236.73 737.895ZM1255.06 742.194C1253.93 742.194 1252.29 741.764 1251.47 740.453H1251.43V741.936H1249.6V726.588H1251.43V732.327H1251.47C1252.08 731.102 1253.5 730.565 1255.02 730.565C1258.44 730.565 1260.14 733.273 1260.14 736.411C1260.14 739.55 1258.46 742.194 1255.06 742.194ZM1251.37 736.368C1251.37 738.561 1252.38 740.582 1254.87 740.582C1257.36 740.582 1258.2 738.453 1258.2 736.282C1258.2 734.197 1257.13 732.177 1254.76 732.177C1252.33 732.177 1251.37 734.262 1251.37 736.368ZM1261.55 746.192V744.601H1263.85L1264.9 741.936L1260.58 730.823H1262.63L1265.79 739.657H1265.83L1269.01 730.823H1270.99L1265.51 745.031C1265.25 745.697 1264.52 746.192 1263.81 746.192H1261.55ZM1281.86 735.681C1284.5 734.09 1285.43 733.144 1285.43 731.038C1285.43 729.382 1284.05 728.265 1282.42 728.265C1280.25 728.265 1279.32 730.242 1279.39 732.069H1277.54C1277.39 728.953 1279.24 726.653 1282.53 726.653C1285.26 726.653 1287.39 728.2 1287.39 731.059C1287.39 733.832 1285.84 735.186 1284.03 736.282C1282.08 737.443 1280.06 738.389 1279.67 740.281H1287.64V741.936H1277.5C1277.5 738.346 1279.67 737.013 1281.86 735.681ZM1295.22 742.258C1292.25 742.258 1289.65 740.109 1289.65 734.455C1289.65 728.802 1292.25 726.653 1295.22 726.653C1298.18 726.653 1300.78 728.802 1300.78 734.455C1300.78 740.109 1298.18 742.258 1295.22 742.258ZM1291.56 734.455C1291.56 738.969 1293.17 740.753 1295.22 740.753C1297.26 740.753 1298.87 738.969 1298.87 734.455C1298.87 729.963 1297.26 728.157 1295.22 728.157C1293.17 728.157 1291.56 729.963 1291.56 734.455ZM1307.16 735.681C1309.8 734.09 1310.72 733.144 1310.72 731.038C1310.72 729.382 1309.35 728.265 1307.71 728.265C1305.54 728.265 1304.62 730.242 1304.68 732.069H1302.84C1302.68 728.953 1304.53 726.653 1307.82 726.653C1310.55 726.653 1312.68 728.2 1312.68 731.059C1312.68 733.832 1311.13 735.186 1309.33 736.282C1307.37 737.443 1305.35 738.389 1304.96 740.281H1312.94V741.936H1302.79C1302.79 738.346 1304.96 737.013 1307.16 735.681ZM1320.25 742.258C1317.37 742.258 1315.2 740.367 1315.05 737.809H1316.94C1317.09 739.421 1318.47 740.625 1320.27 740.625C1322.3 740.625 1323.71 739.206 1323.71 737.185C1323.71 735.165 1322.3 733.832 1320.3 733.832C1318.9 733.832 1317.91 734.455 1317.29 735.509H1315.44L1316.64 726.953H1324.68V728.695H1318.12L1317.44 733.66H1317.5C1318.19 732.757 1319.2 732.198 1320.64 732.198C1323.52 732.198 1325.65 734.219 1325.65 737.142C1325.65 740.152 1323.37 742.258 1320.25 742.258ZM1334.1 741.936V732.435H1332.4V730.823H1334.1V728.415C1334.1 727.405 1334.92 726.588 1335.93 726.588H1338.25V728.2H1335.93V730.823H1338.25V732.435H1335.93V741.936H1334.1ZM1346.42 730.823V732.564H1345.28C1343.36 732.564 1342.09 733.832 1342.09 736.669V741.936H1340.25V730.823H1342.05V733.058H1342.09C1342.93 731.639 1344.09 730.823 1345.51 730.823H1346.42ZM1352.24 730.565C1355.77 730.565 1357.64 733.123 1357.64 736.39C1357.64 739.636 1355.77 742.194 1352.24 742.194C1348.72 742.194 1346.85 739.636 1346.85 736.39C1346.85 733.123 1348.72 730.565 1352.24 730.565ZM1348.78 736.39C1348.78 739.077 1350.33 740.582 1352.24 740.582C1354.16 740.582 1355.7 739.077 1355.7 736.39C1355.7 733.682 1354.16 732.177 1352.24 732.177C1350.33 732.177 1348.78 733.682 1348.78 736.39ZM1359.68 741.936V730.823H1361.4V732.456H1361.45C1362.26 731.21 1363.51 730.565 1365.04 730.565C1366.39 730.565 1367.62 731.102 1368.09 732.435C1368.84 731.274 1370.15 730.565 1371.57 730.565C1373.79 730.565 1375.27 731.489 1375.27 733.789V741.936H1373.44V734.649C1373.44 733.273 1373.08 732.177 1371.29 732.177C1369.53 732.177 1368.39 733.295 1368.39 735.014V741.936H1366.56V734.649C1366.56 733.209 1366.11 732.177 1364.48 732.177C1362.31 732.177 1361.51 734.176 1361.51 735.014V741.936H1359.68ZM1389.54 741.936V738.41H1382.24V736.669L1388.9 726.653H1391.35V736.734H1393.33V738.41H1391.35V741.936H1389.54ZM1384.17 736.734H1389.54V728.437H1389.48L1384.17 736.691V736.734ZM1398.72 741.936L1408.48 726.588H1410.3L1400.57 741.936H1398.72ZM1395.64 730.672C1395.64 727.534 1397.25 726.352 1399.1 726.352C1400.93 726.352 1402.56 727.534 1402.56 730.672C1402.56 733.789 1400.93 734.971 1399.1 734.971C1397.25 734.971 1395.64 733.789 1395.64 730.672ZM1397.25 730.672C1397.25 732.908 1398.07 733.789 1399.1 733.789C1400.11 733.789 1400.95 732.908 1400.95 730.672C1400.95 728.437 1400.11 727.534 1399.1 727.534C1398.07 727.534 1397.25 728.437 1397.25 730.672ZM1406.28 737.895C1406.28 734.756 1407.89 733.574 1409.74 733.574C1411.57 733.574 1413.2 734.756 1413.2 737.895C1413.2 741.011 1411.57 742.194 1409.74 742.194C1407.89 742.194 1406.28 741.011 1406.28 737.895ZM1407.89 737.895C1407.89 740.13 1408.71 741.011 1409.74 741.011C1410.75 741.011 1411.59 740.13 1411.59 737.895C1411.59 735.659 1410.75 734.756 1409.74 734.756C1408.71 734.756 1407.89 735.659 1407.89 737.895ZM1420.86 741.936V730.823H1422.68V741.936H1420.86ZM1420.64 728.824V726.588H1422.9V728.824H1420.64ZM1427.02 730.823V732.585H1427.07C1427.84 731.21 1429.09 730.565 1430.68 730.565C1433.6 730.565 1434.5 732.241 1434.5 734.627V741.936H1432.68V734.412C1432.68 733.058 1431.82 732.177 1430.42 732.177C1428.21 732.177 1427.13 733.66 1427.13 735.659V741.936H1425.3V730.823H1427.02ZM1446.22 735.681C1448.87 734.09 1449.79 733.144 1449.79 731.038C1449.79 729.382 1448.42 728.265 1446.78 728.265C1444.61 728.265 1443.69 730.242 1443.75 732.069H1441.9C1441.75 728.953 1443.6 726.653 1446.89 726.653C1449.62 726.653 1451.75 728.2 1451.75 731.059C1451.75 733.832 1450.2 735.186 1448.4 736.282C1446.44 737.443 1444.42 738.389 1444.03 740.281H1452.01V741.936H1441.86C1441.86 738.346 1444.03 737.013 1446.22 735.681ZM1459.58 742.258C1456.61 742.258 1454.01 740.109 1454.01 734.455C1454.01 728.802 1456.61 726.653 1459.58 726.653C1462.55 726.653 1465.15 728.802 1465.15 734.455C1465.15 740.109 1462.55 742.258 1459.58 742.258ZM1455.93 734.455C1455.93 738.969 1457.54 740.753 1459.58 740.753C1461.62 740.753 1463.23 738.969 1463.23 734.455C1463.23 729.963 1461.62 728.157 1459.58 728.157C1457.54 728.157 1455.93 729.963 1455.93 734.455ZM1471.52 735.681C1474.16 734.09 1475.09 733.144 1475.09 731.038C1475.09 729.382 1473.71 728.265 1472.08 728.265C1469.91 728.265 1468.98 730.242 1469.05 732.069H1467.2C1467.05 728.953 1468.9 726.653 1472.19 726.653C1474.92 726.653 1477.04 728.2 1477.04 731.059C1477.04 733.832 1475.5 735.186 1473.69 736.282C1471.73 737.443 1469.71 738.389 1469.33 740.281H1477.3V741.936H1467.16C1467.16 738.346 1469.33 737.013 1471.52 735.681ZM1484.75 742.258C1481.5 742.258 1479.35 740.41 1479.41 737.271H1481.33C1481.41 739.249 1482.55 740.646 1484.75 740.646C1486.59 740.646 1488.23 739.528 1488.23 737.68C1488.23 735.745 1486.7 734.735 1484.81 734.735H1483.67V733.252H1484.49C1486.12 733.252 1487.54 732.413 1487.54 730.737C1487.54 729.146 1486.31 728.286 1484.7 728.286C1482.6 728.286 1481.69 729.812 1481.67 731.618H1479.74C1479.87 728.695 1481.5 726.653 1484.7 726.653C1487.48 726.653 1489.56 727.942 1489.56 730.758C1489.56 732.112 1488.57 733.273 1487.35 733.81V733.853C1489.28 734.305 1490.23 735.745 1490.23 737.594C1490.23 740.668 1487.73 742.258 1484.75 742.258ZM1492.54 741.936V739.55H1494.93V741.936H1492.54Z" fill="black"/>
<path d="M474.314 591V472.97C474.314 468.64 474.314 464.216 474.314 459.698C474.503 454.992 474.691 450.192 474.879 445.298C468.479 451.133 461.325 456.216 453.419 460.546C445.513 464.875 437.418 467.887 429.135 469.581L424.053 436.827C428.382 436.45 433.182 435.226 438.453 433.156C443.913 430.897 449.372 428.261 454.831 425.249C460.478 422.049 465.561 418.755 470.079 415.366C474.785 411.79 478.362 408.213 480.809 404.636H512.434V591H474.314ZM603.079 593.824C584.443 593.824 568.536 589.965 555.359 582.247C542.37 574.34 533.428 563.046 528.534 548.362L565.242 532.267C566.559 539.044 568.724 544.692 571.736 549.21C574.748 553.539 578.795 556.833 583.878 559.092C589.149 561.351 595.361 562.481 602.514 562.481C608.915 562.481 614.28 561.351 618.609 559.092C623.127 556.833 626.61 553.633 629.057 549.492C631.504 545.35 632.728 540.644 632.728 535.373C632.728 529.726 631.598 525.114 629.339 521.537C627.269 517.961 624.069 515.419 619.739 513.913C615.409 512.219 609.95 511.372 603.361 511.372C600.914 511.372 598.561 511.466 596.302 511.654C594.232 511.654 591.878 511.843 589.243 512.219V483.7C590.749 483.888 592.255 484.076 593.761 484.265C595.455 484.265 597.149 484.265 598.844 484.265C609.385 484.265 616.915 482.194 621.433 478.052C626.139 473.723 628.492 466.852 628.492 457.439C628.492 449.721 626.139 443.792 621.433 439.65C616.915 435.321 610.421 433.156 601.95 433.156C592.914 433.156 585.76 435.415 580.49 439.933C575.219 444.262 571.548 450.945 569.477 459.981L534.746 446.992C537.005 437.58 541.334 429.485 547.735 422.708C554.323 415.931 562.418 410.754 572.018 407.178C581.619 403.413 592.255 401.53 603.926 401.53C617.856 401.53 629.434 403.695 638.658 408.025C648.07 412.355 655.129 418.284 659.835 425.814C664.73 433.344 667.177 442.003 667.177 451.792C667.177 459.51 665.953 466.099 663.506 471.558C661.247 476.829 658.235 481.347 654.47 485.112C650.894 488.688 647.129 491.418 643.176 493.3C639.222 495.183 635.552 496.312 632.163 496.689V497.536C636.493 497.724 640.917 498.665 645.435 500.36C649.952 501.866 654.094 504.219 657.859 507.419C661.812 510.619 665.012 514.76 667.459 519.843C669.907 524.738 671.13 530.573 671.13 537.35C671.13 548.645 668.118 558.622 662.094 567.281C656.259 575.752 648.258 582.341 638.093 587.047C627.928 591.565 616.256 593.824 603.079 593.824ZM718.531 591L844.185 404.636H875.246L749.591 591H718.531ZM727.849 401.813C738.014 401.813 746.768 403.978 754.109 408.307C761.639 412.637 767.381 418.755 771.334 426.661C775.475 434.568 777.546 443.792 777.546 454.333C777.546 464.875 775.475 474.099 771.334 482.006C767.381 489.724 761.639 495.842 754.109 500.36C746.768 504.689 738.014 506.854 727.849 506.854C717.872 506.854 709.118 504.689 701.588 500.36C694.059 495.842 688.223 489.724 684.082 482.006C680.128 474.099 678.152 464.875 678.152 454.333C678.152 443.792 680.128 434.568 684.082 426.661C688.223 418.755 694.059 412.637 701.588 408.307C709.118 403.978 717.872 401.813 727.849 401.813ZM727.849 428.638C723.707 428.638 720.131 429.673 717.119 431.744C714.107 433.626 711.848 436.544 710.342 440.497C708.836 444.262 708.083 448.874 708.083 454.333C708.083 459.604 708.836 464.216 710.342 468.17C711.848 471.934 714.107 474.852 717.119 476.923C720.131 478.805 723.707 479.747 727.849 479.747C732.179 479.747 735.755 478.805 738.579 476.923C741.591 474.852 743.85 471.934 745.356 468.17C746.862 464.216 747.615 459.604 747.615 454.333C747.615 448.874 746.862 444.262 745.356 440.497C743.85 436.544 741.591 433.626 738.579 431.744C735.755 429.673 732.179 428.638 727.849 428.638ZM865.645 488.782C875.622 488.782 884.281 491.041 891.623 495.559C899.153 499.889 904.989 506.007 909.13 513.913C913.271 521.631 915.342 530.761 915.342 541.303C915.342 551.845 913.271 561.069 909.13 568.975C904.989 576.882 899.153 583 891.623 587.329C884.281 591.659 875.622 593.824 865.645 593.824C855.668 593.824 846.915 591.659 839.385 587.329C831.855 583 826.019 576.882 821.878 568.975C817.925 561.069 815.948 551.845 815.948 541.303C815.948 530.761 817.925 521.631 821.878 513.913C826.019 506.007 831.855 499.889 839.385 495.559C846.915 491.041 855.668 488.782 865.645 488.782ZM865.645 515.89C861.315 515.89 857.645 516.925 854.633 518.996C851.809 520.878 849.644 523.702 848.138 527.467C846.632 531.232 845.879 535.844 845.879 541.303C845.879 546.574 846.632 551.186 848.138 555.139C849.644 559.092 851.809 562.104 854.633 564.175C857.645 566.058 861.315 566.999 865.645 566.999C869.975 566.999 873.551 566.058 876.375 564.175C879.387 562.104 881.646 559.092 883.152 555.139C884.658 551.186 885.411 546.574 885.411 541.303C885.411 535.844 884.658 531.232 883.152 527.467C881.646 523.702 879.387 520.878 876.375 518.996C873.551 516.925 869.975 515.89 865.645 515.89Z" fill="black"/>
<path opacity="0.3" d="M424.785 689.936L430.783 674.588H433.04L439.037 689.936H436.801L435.125 685.314H428.698L427.021 689.936H424.785ZM429.321 683.595H434.501L431.943 676.523H431.879L429.321 683.595ZM440.4 694.192V678.823H442.227V680.327H442.27C442.872 679.102 444.29 678.565 445.817 678.565C449.234 678.565 450.932 681.273 450.932 684.411C450.932 687.55 449.256 690.194 445.86 690.194C444.72 690.194 443.087 689.764 442.27 688.453H442.227V694.192H440.4ZM442.162 684.368C442.162 686.561 443.173 688.582 445.666 688.582C448.16 688.582 448.998 686.453 448.998 684.282C448.998 682.197 447.923 680.177 445.559 680.177C443.13 680.177 442.162 682.262 442.162 684.368ZM452.974 694.192V678.823H454.801V680.327H454.844C455.446 679.102 456.864 678.565 458.391 678.565C461.808 678.565 463.506 681.273 463.506 684.411C463.506 687.55 461.83 690.194 458.433 690.194C457.294 690.194 455.661 689.764 454.844 688.453H454.801V694.192H452.974ZM454.736 684.368C454.736 686.561 455.747 688.582 458.24 688.582C460.733 688.582 461.572 686.453 461.572 684.282C461.572 682.197 460.497 680.177 458.133 680.177C455.704 680.177 454.736 682.262 454.736 684.368ZM471.717 678.823V680.564H470.578C468.664 680.564 467.396 681.832 467.396 684.669V689.936H465.548V678.823H467.353V681.058H467.396C468.235 679.639 469.395 678.823 470.814 678.823H471.717ZM477.544 678.565C481.069 678.565 482.939 681.123 482.939 684.39C482.939 687.636 481.069 690.194 477.544 690.194C474.018 690.194 472.148 687.636 472.148 684.39C472.148 681.123 474.018 678.565 477.544 678.565ZM474.083 684.39C474.083 687.077 475.631 688.582 477.544 688.582C479.457 688.582 481.004 687.077 481.004 684.39C481.004 681.682 479.457 680.177 477.544 680.177C475.631 680.177 474.083 681.682 474.083 684.39ZM483.31 689.936L487.501 684.089L483.718 678.823H486.018L488.684 682.713L491.349 678.823H493.649L489.866 684.089L494.057 689.936H491.779L488.684 685.293L485.588 689.936H483.31ZM495.505 689.936V678.823H497.332V689.936H495.505ZM495.29 676.824V674.588H497.547V676.824H495.29ZM499.953 689.936V678.823H501.672V680.456H501.715C502.532 679.21 503.779 678.565 505.305 678.565C506.659 678.565 507.885 679.102 508.357 680.435C509.11 679.274 510.421 678.565 511.84 678.565C514.054 678.565 515.537 679.489 515.537 681.789V689.936H513.71V682.649C513.71 681.273 513.344 680.177 511.56 680.177C509.798 680.177 508.658 681.295 508.658 683.014V689.936H506.831V682.649C506.831 681.209 506.38 680.177 504.746 680.177C502.575 680.177 501.78 682.176 501.78 683.014V689.936H499.953ZM521.19 690.194C518.89 690.194 517.493 688.925 517.493 686.862C517.493 684.777 519.084 683.81 521.986 683.573C524.135 683.401 525.124 683.1 525.124 682.025C525.124 680.865 524.049 680.155 522.587 680.155C521.04 680.155 519.944 680.779 519.815 682.348H517.944C517.944 680.284 519.879 678.565 522.587 678.565C525.038 678.565 526.951 679.79 526.951 682.219V688.324H527.746V689.936H526.478C525.79 689.936 525.21 689.355 525.21 688.668V688.238H525.167C524.221 689.506 522.652 690.194 521.19 690.194ZM519.406 686.862C519.406 687.98 520.352 688.539 521.534 688.539C523.447 688.539 525.167 687.27 525.167 685.142V684.196C524.458 684.691 523.447 684.841 522.351 684.949C520.459 685.142 519.406 685.68 519.406 686.862ZM531.606 689.936C530.919 689.936 530.338 689.355 530.338 688.668V680.435H528.339V678.823H530.338L530.833 675.491H532.165V678.823H534.487V680.435H532.165V688.324H534.487V689.936H531.606ZM540.892 690.194C537.732 690.194 535.669 687.915 535.669 684.39C535.669 680.886 537.668 678.565 540.828 678.565C543.987 678.565 545.901 680.886 545.901 684.39C545.901 684.583 545.901 684.777 545.879 684.97H537.539C537.732 687.077 538.872 688.603 540.892 688.603C542.311 688.603 543.386 687.808 543.901 686.389H545.793C545.17 688.753 543.407 690.194 540.892 690.194ZM537.603 683.337H543.987C543.686 681.338 542.526 680.134 540.828 680.134C538.979 680.134 537.883 681.488 537.603 683.337ZM548.045 689.936V674.588H549.872V689.936H548.045ZM552.287 694.192V692.601H554.587L555.64 689.936L551.32 678.823H553.362L556.522 687.657H556.565L559.746 678.823H561.724L556.242 693.031C555.984 693.697 555.253 694.192 554.544 694.192H552.287ZM573.349 678.565C576.874 678.565 578.744 681.123 578.744 684.39C578.744 687.636 576.874 690.194 573.349 690.194C569.824 690.194 567.954 687.636 567.954 684.39C567.954 681.123 569.824 678.565 573.349 678.565ZM569.888 684.39C569.888 687.077 571.436 688.582 573.349 688.582C575.262 688.582 576.81 687.077 576.81 684.39C576.81 681.682 575.262 680.177 573.349 680.177C571.436 680.177 569.888 681.682 569.888 684.39ZM582.511 678.823V680.585H582.554C583.328 679.21 584.574 678.565 586.165 678.565C589.088 678.565 589.991 680.241 589.991 682.627V689.936H588.164V682.412C588.164 681.058 587.304 680.177 585.907 680.177C583.693 680.177 582.618 681.66 582.618 683.659V689.936H580.791V678.823H582.511ZM597.254 690.194C594.095 690.194 592.031 687.915 592.031 684.39C592.031 680.886 594.03 678.565 597.19 678.565C600.35 678.565 602.263 680.886 602.263 684.39C602.263 684.583 602.263 684.777 602.241 684.97H593.901C594.095 687.077 595.234 688.603 597.254 688.603C598.673 688.603 599.748 687.808 600.264 686.389H602.155C601.532 688.753 599.769 690.194 597.254 690.194ZM593.966 683.337H600.35C600.049 681.338 598.888 680.134 597.19 680.134C595.341 680.134 594.245 681.488 593.966 683.337ZM610.577 683.1V684.82H604.365V683.1H610.577ZM617.31 690.194C614.214 690.194 612.516 688.431 612.516 686.389H614.429C614.558 687.808 615.483 688.646 617.31 688.646C618.922 688.646 619.997 688.001 619.997 686.948C619.997 686.196 619.352 685.68 618.019 685.4L616.106 684.992C613.849 684.519 612.796 683.38 612.796 681.875C612.796 679.897 614.494 678.565 617.095 678.565C619.846 678.565 621.544 680.177 621.609 682.24H619.717C619.567 680.671 618.513 680.048 617.095 680.048C615.612 680.048 614.623 680.757 614.623 681.746C614.623 682.52 615.332 683.036 616.665 683.294L618.578 683.659C620.985 684.11 621.888 685.207 621.888 686.819C621.888 688.796 620.061 690.194 617.31 690.194ZM628.553 690.194C625.393 690.194 623.329 687.915 623.329 684.39C623.329 680.886 625.328 678.565 628.488 678.565C631.648 678.565 633.561 680.886 633.561 684.39C633.561 684.583 633.561 684.777 633.54 684.97H625.199C625.393 687.077 626.532 688.603 628.553 688.603C629.971 688.603 631.046 687.808 631.562 686.389H633.454C632.83 688.753 631.068 690.194 628.553 690.194ZM625.264 683.337H631.648C631.347 681.338 630.186 680.134 628.488 680.134C626.64 680.134 625.543 681.488 625.264 683.337ZM638.344 689.936L634.238 678.823H636.28L639.376 687.958H639.44L642.536 678.823H644.578L640.472 689.936H638.344ZM650.426 690.194C647.266 690.194 645.203 687.915 645.203 684.39C645.203 680.886 647.202 678.565 650.361 678.565C653.521 678.565 655.434 680.886 655.434 684.39C655.434 684.583 655.434 684.777 655.413 684.97H647.073C647.266 687.077 648.405 688.603 650.426 688.603C651.845 688.603 652.919 687.808 653.435 686.389H655.327C654.703 688.753 652.941 690.194 650.426 690.194ZM647.137 683.337H653.521C653.22 681.338 652.06 680.134 650.361 680.134C648.513 680.134 647.417 681.488 647.137 683.337ZM659.256 678.823V680.585H659.299C660.073 679.21 661.319 678.565 662.91 678.565C665.833 678.565 666.736 680.241 666.736 682.627V689.936H664.909V682.412C664.909 681.058 664.049 680.177 662.652 680.177C660.438 680.177 659.363 681.66 659.363 683.659V689.936H657.536V678.823H659.256ZM671.368 689.936C670.68 689.936 670.1 689.355 670.1 688.668V680.435H668.101V678.823H670.1L670.594 675.491H671.927V678.823H674.248V680.435H671.927V688.324H674.248V689.936H671.368ZM678.172 674.588V680.456H678.215C678.817 679.124 680.386 678.565 681.718 678.565C684.642 678.565 685.545 680.241 685.545 682.627V689.936H683.717V682.412C683.717 681.058 682.858 680.177 681.46 680.177C679.246 680.177 678.172 681.66 678.172 683.659V689.936H676.345V674.588H678.172ZM698.018 678.565C701.543 678.565 703.413 681.123 703.413 684.39C703.413 687.636 701.543 690.194 698.018 690.194C694.492 690.194 692.622 687.636 692.622 684.39C692.622 681.123 694.492 678.565 698.018 678.565ZM694.557 684.39C694.557 687.077 696.105 688.582 698.018 688.582C699.931 688.582 701.478 687.077 701.478 684.39C701.478 681.682 699.931 680.177 698.018 680.177C696.105 680.177 694.557 681.682 694.557 684.39ZM706.198 689.936V680.435H704.5V678.823H706.198V676.415C706.198 675.405 707.015 674.588 708.025 674.588H710.347V676.2H708.025V678.823H710.347V680.435H708.025V689.936H706.198ZM719.9 689.936C719.213 689.936 718.632 689.355 718.632 688.668V680.435H716.633V678.823H718.632L719.127 675.491H720.459V678.823H722.781V680.435H720.459V688.324H722.781V689.936H719.9ZM726.704 674.588V680.456H726.747C727.349 679.124 728.918 678.565 730.251 678.565C733.174 678.565 734.077 680.241 734.077 682.627V689.936H732.25V682.412C732.25 681.058 731.39 680.177 729.993 680.177C727.779 680.177 726.704 681.66 726.704 683.659V689.936H724.877V674.588H726.704ZM741.34 690.194C738.18 690.194 736.117 687.915 736.117 684.39C736.117 680.886 738.116 678.565 741.276 678.565C744.436 678.565 746.349 680.886 746.349 684.39C746.349 684.583 746.349 684.777 746.327 684.97H737.987C738.18 687.077 739.32 688.603 741.34 688.603C742.759 688.603 743.834 687.808 744.35 686.389H746.241C745.618 688.753 743.855 690.194 741.34 690.194ZM738.051 683.337H744.436C744.135 681.338 742.974 680.134 741.276 680.134C739.427 680.134 738.331 681.488 738.051 683.337ZM756.283 689.936L752.715 678.823H754.735L757.25 687.786H757.293L759.529 678.823H761.506L763.742 687.786H763.785L766.3 678.823H768.32L764.752 689.936H762.774L760.539 681.101H760.496L758.26 689.936H756.283ZM774.343 678.565C777.868 678.565 779.738 681.123 779.738 684.39C779.738 687.636 777.868 690.194 774.343 690.194C770.818 690.194 768.948 687.636 768.948 684.39C768.948 681.123 770.818 678.565 774.343 678.565ZM770.882 684.39C770.882 687.077 772.43 688.582 774.343 688.582C776.256 688.582 777.804 687.077 777.804 684.39C777.804 681.682 776.256 680.177 774.343 680.177C772.43 680.177 770.882 681.682 770.882 684.39ZM787.954 678.823V680.564H786.815C784.902 680.564 783.634 681.832 783.634 684.669V689.936H781.785V678.823H783.591V681.058H783.634C784.472 679.639 785.633 678.823 787.051 678.823H787.954ZM789.679 689.936V674.588H791.506V689.936H789.679ZM798.603 690.194C795.185 690.194 793.487 687.485 793.487 684.347C793.487 681.209 795.163 678.565 798.56 678.565C799.699 678.565 801.332 678.995 802.149 680.306H802.192V674.588H804.019V689.936H802.192V688.431H802.149C801.547 689.656 800.129 690.194 798.603 690.194ZM795.421 684.476C795.421 686.561 796.496 688.582 798.861 688.582C801.289 688.582 802.257 686.496 802.257 684.39C802.257 682.197 801.247 680.177 798.753 680.177C796.26 680.177 795.421 682.305 795.421 684.476ZM808.146 680.134H806.555V674.588H808.146V680.134ZM814.651 690.194C811.556 690.194 809.858 688.431 809.858 686.389H811.771C811.9 687.808 812.824 688.646 814.651 688.646C816.263 688.646 817.338 688.001 817.338 686.948C817.338 686.196 816.693 685.68 815.36 685.4L813.447 684.992C811.19 684.519 810.137 683.38 810.137 681.875C810.137 679.897 811.835 678.565 814.436 678.565C817.187 678.565 818.886 680.177 818.95 682.24H817.059C816.908 680.671 815.855 680.048 814.436 680.048C812.953 680.048 811.964 680.757 811.964 681.746C811.964 682.52 812.673 683.036 814.006 683.294L815.919 683.659C818.327 684.11 819.23 685.207 819.23 686.819C819.23 688.796 817.402 690.194 814.651 690.194ZM826.203 694.192V678.823H828.03V680.327H828.073C828.675 679.102 830.094 678.565 831.62 678.565C835.038 678.565 836.736 681.273 836.736 684.411C836.736 687.55 835.059 690.194 831.663 690.194C830.524 690.194 828.89 689.764 828.073 688.453H828.03V694.192H826.203ZM827.966 684.368C827.966 686.561 828.976 688.582 831.469 688.582C833.963 688.582 834.801 686.453 834.801 684.282C834.801 682.197 833.726 680.177 831.362 680.177C828.933 680.177 827.966 682.262 827.966 684.368ZM844.946 678.823V680.564H843.807C841.894 680.564 840.626 681.832 840.626 684.669V689.936H838.777V678.823H840.583V681.058H840.626C841.464 679.639 842.625 678.823 844.043 678.823H844.946ZM846.714 689.936V678.823H848.541V689.936H846.714ZM846.499 676.824V674.588H848.756V676.824H846.499ZM851.162 689.936V678.823H852.882V680.456H852.925C853.741 679.21 854.988 678.565 856.514 678.565C857.869 678.565 859.094 679.102 859.567 680.435C860.319 679.274 861.63 678.565 863.049 678.565C865.263 678.565 866.746 679.489 866.746 681.789V689.936H864.919V682.649C864.919 681.273 864.554 680.177 862.77 680.177C861.007 680.177 859.868 681.295 859.868 683.014V689.936H858.041V682.649C858.041 681.209 857.589 680.177 855.955 680.177C853.784 680.177 852.989 682.176 852.989 683.014V689.936H851.162ZM872.4 690.194C870.1 690.194 868.702 688.925 868.702 686.862C868.702 684.777 870.293 683.81 873.195 683.573C875.344 683.401 876.333 683.1 876.333 682.025C876.333 680.865 875.258 680.155 873.797 680.155C872.249 680.155 871.153 680.779 871.024 682.348H869.154C869.154 680.284 871.088 678.565 873.797 678.565C876.247 678.565 878.16 679.79 878.16 682.219V688.324H878.956V689.936H877.687C877 689.936 876.419 689.355 876.419 688.668V688.238H876.376C875.43 689.506 873.861 690.194 872.4 690.194ZM870.615 686.862C870.615 687.98 871.561 688.539 872.743 688.539C874.657 688.539 876.376 687.27 876.376 685.142V684.196C875.667 684.691 874.657 684.841 873.56 684.949C871.669 685.142 870.615 685.68 870.615 686.862ZM886.992 678.823V680.564H885.853C883.94 680.564 882.672 681.832 882.672 684.669V689.936H880.823V678.823H882.629V681.058H882.672C883.51 679.639 884.671 678.823 886.089 678.823H886.992ZM888.781 694.192V692.601H891.081L892.135 689.936L887.814 678.823H889.856L893.016 687.657H893.059L896.24 678.823H898.218L892.737 693.031C892.479 693.697 891.748 694.192 891.038 694.192H888.781ZM430.267 716.194C427.107 716.194 425.043 713.915 425.043 710.39C425.043 706.886 427.042 704.565 430.202 704.565C433.362 704.565 435.275 706.886 435.275 710.39C435.275 710.583 435.275 710.777 435.254 710.97H426.913C427.107 713.077 428.246 714.603 430.267 714.603C431.685 714.603 432.76 713.808 433.276 712.389H435.168C434.544 714.753 432.782 716.194 430.267 716.194ZM426.978 709.337H433.362C433.061 707.338 431.9 706.134 430.202 706.134C428.354 706.134 427.257 707.488 426.978 709.337ZM439.097 704.823V706.585H439.14C439.913 705.21 441.16 704.565 442.751 704.565C445.674 704.565 446.577 706.241 446.577 708.627V715.936H444.75V708.412C444.75 707.058 443.89 706.177 442.493 706.177C440.279 706.177 439.204 707.66 439.204 709.659V715.936H437.377V704.823H439.097ZM453.84 716.194C450.68 716.194 448.617 713.915 448.617 710.39C448.617 706.886 450.616 704.565 453.776 704.565C456.936 704.565 458.849 706.886 458.849 710.39C458.849 710.583 458.849 710.777 458.827 710.97H450.487C450.68 713.077 451.82 714.603 453.84 714.603C455.259 714.603 456.334 713.808 456.85 712.389H458.741C458.118 714.753 456.355 716.194 453.84 716.194ZM450.551 709.337H456.936C456.635 707.338 455.474 706.134 453.776 706.134C451.927 706.134 450.831 707.488 450.551 709.337ZM467.12 704.823V706.564H465.98C464.067 706.564 462.799 707.832 462.799 710.669V715.936H460.95V704.823H462.756V707.058H462.799C463.637 705.639 464.798 704.823 466.217 704.823H467.12ZM472.813 720.514C469.954 720.514 468.427 719.353 467.89 716.903H469.803C470.233 718.3 471.2 718.924 472.813 718.924C475.413 718.924 476.209 717.44 476.209 714.668V714.066H476.187C475.585 715.42 474.124 716.086 472.727 716.086C469.416 716.086 467.761 713.464 467.761 710.433C467.761 707.81 469.051 704.565 472.899 704.565C474.296 704.565 475.542 705.21 476.209 706.413H476.23V704.823H477.95V715.57C477.95 718.795 475.951 720.514 472.813 720.514ZM469.696 710.239C469.696 712.239 470.427 714.453 472.834 714.453C475.242 714.453 476.144 712.26 476.144 710.153C476.144 708.219 475.284 706.198 472.984 706.198C470.642 706.198 469.696 708.09 469.696 710.239ZM480.118 720.192V718.601H482.418L483.472 715.936L479.151 704.823H481.193L484.353 713.657H484.396L487.577 704.823H489.555L484.073 719.031C483.815 719.697 483.085 720.192 482.375 720.192H480.118ZM497.999 704.823V706.585H498.042C498.816 705.21 500.062 704.565 501.653 704.565C504.576 704.565 505.479 706.241 505.479 708.627V715.936H503.652V708.412C503.652 707.058 502.792 706.177 501.395 706.177C499.181 706.177 498.106 707.66 498.106 709.659V715.936H496.279V704.823H497.999ZM512.914 704.565C516.44 704.565 518.31 707.123 518.31 710.39C518.31 713.636 516.44 716.194 512.914 716.194C509.389 716.194 507.519 713.636 507.519 710.39C507.519 707.123 509.389 704.565 512.914 704.565ZM509.454 710.39C509.454 713.077 511.001 714.582 512.914 714.582C514.827 714.582 516.375 713.077 516.375 710.39C516.375 707.682 514.827 706.177 512.914 706.177C511.001 706.177 509.454 707.682 509.454 710.39ZM522.5 715.936L518.932 704.823H520.952L523.467 713.786H523.51L525.746 704.823H527.724L529.959 713.786H530.002L532.517 704.823H534.538L530.969 715.936H528.992L526.756 707.101H526.713L524.478 715.936H522.5ZM545.948 716.194C542.788 716.194 540.789 713.937 540.789 710.39C540.789 706.865 542.788 704.565 545.948 704.565C548.506 704.565 550.333 706.112 550.892 708.649H549.022C548.549 706.994 547.453 706.134 545.948 706.134C543.949 706.134 542.638 707.768 542.638 710.39C542.638 713.055 543.949 714.603 545.948 714.603C547.453 714.603 548.613 713.786 549.086 712.11H550.978C550.398 714.668 548.506 716.194 545.948 716.194ZM557.773 704.565C561.299 704.565 563.169 707.123 563.169 710.39C563.169 713.636 561.299 716.194 557.773 716.194C554.248 716.194 552.378 713.636 552.378 710.39C552.378 707.123 554.248 704.565 557.773 704.565ZM554.313 710.39C554.313 713.077 555.86 714.582 557.773 714.582C559.686 714.582 561.234 713.077 561.234 710.39C561.234 707.682 559.686 706.177 557.773 706.177C555.86 706.177 554.313 707.682 554.313 710.39ZM565.215 715.936V704.823H566.935V706.456H566.978C567.795 705.21 569.042 704.565 570.568 704.565C571.922 704.565 573.147 705.102 573.62 706.435C574.372 705.274 575.684 704.565 577.102 704.565C579.316 704.565 580.8 705.489 580.8 707.789V715.936H578.972V708.649C578.972 707.273 578.607 706.177 576.823 706.177C575.06 706.177 573.921 707.295 573.921 709.014V715.936H572.094V708.649C572.094 707.209 571.643 706.177 570.009 706.177C567.838 706.177 567.043 708.176 567.043 709.014V715.936H565.215ZM588.06 716.194C584.9 716.194 582.837 713.915 582.837 710.39C582.837 706.886 584.836 704.565 587.996 704.565C591.155 704.565 593.068 706.886 593.068 710.39C593.068 710.583 593.068 710.777 593.047 710.97H584.707C584.9 713.077 586.04 714.603 588.06 714.603C589.479 714.603 590.554 713.808 591.069 712.389H592.961C592.338 714.753 590.575 716.194 588.06 716.194ZM584.771 709.337H591.155C590.854 707.338 589.694 706.134 587.996 706.134C586.147 706.134 585.051 707.488 584.771 709.337ZM599.257 716.194C596.162 716.194 594.463 714.431 594.463 712.389H596.377C596.506 713.808 597.43 714.646 599.257 714.646C600.869 714.646 601.944 714.001 601.944 712.948C601.944 712.196 601.299 711.68 599.966 711.4L598.053 710.992C595.796 710.519 594.743 709.38 594.743 707.875C594.743 705.897 596.441 704.565 599.042 704.565C601.793 704.565 603.492 706.177 603.556 708.24H601.664C601.514 706.671 600.461 706.048 599.042 706.048C597.559 706.048 596.57 706.757 596.57 707.746C596.57 708.52 597.279 709.036 598.612 709.294L600.525 709.659C602.933 710.11 603.835 711.207 603.835 712.819C603.835 714.796 602.008 716.194 599.257 716.194ZM611.862 715.936V706.435H610.164V704.823H611.862V702.415C611.862 701.405 612.679 700.588 613.689 700.588H616.011V702.2H613.689V704.823H616.011V706.435H613.689V715.936H611.862ZM624.178 704.823V706.564H623.039C621.126 706.564 619.858 707.832 619.858 710.669V715.936H618.009V704.823H619.815V707.058H619.858C620.696 705.639 621.857 704.823 623.275 704.823H624.178ZM630.005 704.565C633.53 704.565 635.401 707.123 635.401 710.39C635.401 713.636 633.53 716.194 630.005 716.194C626.48 716.194 624.61 713.636 624.61 710.39C624.61 707.123 626.48 704.565 630.005 704.565ZM626.544 710.39C626.544 713.077 628.092 714.582 630.005 714.582C631.918 714.582 633.466 713.077 633.466 710.39C633.466 707.682 631.918 706.177 630.005 706.177C628.092 706.177 626.544 707.682 626.544 710.39ZM637.447 715.936V704.823H639.167V706.456H639.21C640.027 705.21 641.273 704.565 642.8 704.565C644.154 704.565 645.379 705.102 645.852 706.435C646.604 705.274 647.915 704.565 649.334 704.565C651.548 704.565 653.031 705.489 653.031 707.789V715.936H651.204V708.649C651.204 707.273 650.839 706.177 649.055 706.177C647.292 706.177 646.153 707.295 646.153 709.014V715.936H644.326V708.649C644.326 707.209 643.874 706.177 642.241 706.177C640.07 706.177 639.274 708.176 639.274 709.014V715.936H637.447ZM666.77 704.823V706.564H665.631C663.718 706.564 662.45 707.832 662.45 710.669V715.936H660.601V704.823H662.407V707.058H662.45C663.288 705.639 664.449 704.823 665.867 704.823H666.77ZM672.425 716.194C669.265 716.194 667.202 713.915 667.202 710.39C667.202 706.886 669.201 704.565 672.361 704.565C675.52 704.565 677.433 706.886 677.433 710.39C677.433 710.583 677.433 710.777 677.412 710.97H669.072C669.265 713.077 670.404 714.603 672.425 714.603C673.844 714.603 674.918 713.808 675.434 712.389H677.326C676.703 714.753 674.94 716.194 672.425 716.194ZM669.136 709.337H675.52C675.219 707.338 674.059 706.134 672.361 706.134C670.512 706.134 669.416 707.488 669.136 709.337ZM681.255 704.823V706.585H681.298C682.072 705.21 683.318 704.565 684.909 704.565C687.832 704.565 688.735 706.241 688.735 708.627V715.936H686.908V708.412C686.908 707.058 686.048 706.177 684.651 706.177C682.437 706.177 681.362 707.66 681.362 709.659V715.936H679.535V704.823H681.255ZM695.999 716.194C692.839 716.194 690.775 713.915 690.775 710.39C690.775 706.886 692.774 704.565 695.934 704.565C699.094 704.565 701.007 706.886 701.007 710.39C701.007 710.583 701.007 710.777 700.985 710.97H692.645C692.839 713.077 693.978 714.603 695.999 714.603C697.417 714.603 698.492 713.808 699.008 712.389H700.899C700.276 714.753 698.513 716.194 695.999 716.194ZM692.71 709.337H699.094C698.793 707.338 697.632 706.134 695.934 706.134C694.085 706.134 692.989 707.488 692.71 709.337ZM705.252 715.936L701.684 704.823H703.705L706.22 713.786H706.263L708.498 704.823H710.476L712.711 713.786H712.754L715.269 704.823H717.29L713.722 715.936H711.744L709.508 707.101H709.465L707.23 715.936H705.252ZM721.533 716.194C719.233 716.194 717.836 714.925 717.836 712.862C717.836 710.777 719.427 709.81 722.329 709.573C724.478 709.401 725.467 709.1 725.467 708.025C725.467 706.865 724.392 706.155 722.931 706.155C721.383 706.155 720.287 706.779 720.158 708.348H718.288C718.288 706.284 720.222 704.565 722.931 704.565C725.381 704.565 727.294 705.79 727.294 708.219V714.324H728.09V715.936H726.821C726.133 715.936 725.553 715.355 725.553 714.668V714.238H725.51C724.564 715.506 722.995 716.194 721.533 716.194ZM719.749 712.862C719.749 713.98 720.695 714.539 721.877 714.539C723.79 714.539 725.51 713.27 725.51 711.142V710.196C724.801 710.691 723.79 710.841 722.694 710.949C720.803 711.142 719.749 711.68 719.749 712.862ZM735.417 716.194C734.277 716.194 732.644 715.764 731.827 714.453H731.784V715.936H729.957V700.588H731.784V706.327H731.827C732.429 705.102 733.848 704.565 735.374 704.565C738.791 704.565 740.49 707.273 740.49 710.411C740.49 713.55 738.813 716.194 735.417 716.194ZM731.72 710.368C731.72 712.561 732.73 714.582 735.223 714.582C737.717 714.582 738.555 712.453 738.555 710.282C738.555 708.197 737.48 706.177 735.116 706.177C732.687 706.177 731.72 708.262 731.72 710.368ZM742.364 715.936V700.588H744.191V715.936H742.364ZM751.5 716.194C748.34 716.194 746.277 713.915 746.277 710.39C746.277 706.886 748.276 704.565 751.436 704.565C754.595 704.565 756.509 706.886 756.509 710.39C756.509 710.583 756.509 710.777 756.487 710.97H748.147C748.34 713.077 749.48 714.603 751.5 714.603C752.919 714.603 753.994 713.808 754.509 712.389H756.401C755.778 714.753 754.015 716.194 751.5 716.194ZM748.211 709.337H754.595C754.295 707.338 753.134 706.134 751.436 706.134C749.587 706.134 748.491 707.488 748.211 709.337ZM766.271 715.936C765.583 715.936 765.003 715.355 765.003 714.668V706.435H763.003V704.823H765.003L765.497 701.491H766.83V704.823H769.151V706.435H766.83V714.324H769.151V715.936H766.271ZM775.556 716.194C772.397 716.194 770.333 713.915 770.333 710.39C770.333 706.886 772.332 704.565 775.492 704.565C778.652 704.565 780.565 706.886 780.565 710.39C780.565 710.583 780.565 710.777 780.543 710.97H772.203C772.397 713.077 773.536 714.603 775.556 714.603C776.975 714.603 778.05 713.808 778.566 712.389H780.457C779.834 714.753 778.071 716.194 775.556 716.194ZM772.268 709.337H778.652C778.351 707.338 777.19 706.134 775.492 706.134C773.643 706.134 772.547 707.488 772.268 709.337ZM787.162 716.194C784.002 716.194 782.003 713.937 782.003 710.39C782.003 706.865 784.002 704.565 787.162 704.565C789.72 704.565 791.547 706.112 792.106 708.649H790.236C789.763 706.994 788.666 706.134 787.162 706.134C785.163 706.134 783.851 707.768 783.851 710.39C783.851 713.055 785.163 714.603 787.162 714.603C788.666 714.603 789.827 713.786 790.3 712.11H792.192C791.611 714.668 789.72 716.194 787.162 716.194ZM796.018 700.588V706.456H796.061C796.663 705.124 798.232 704.565 799.565 704.565C802.488 704.565 803.391 706.241 803.391 708.627V715.936H801.564V708.412C801.564 707.058 800.704 706.177 799.307 706.177C797.093 706.177 796.018 707.66 796.018 709.659V715.936H794.191V700.588H796.018ZM807.645 704.823V706.585H807.688C808.462 705.21 809.708 704.565 811.299 704.565C814.222 704.565 815.125 706.241 815.125 708.627V715.936H813.298V708.412C813.298 707.058 812.438 706.177 811.041 706.177C808.827 706.177 807.752 707.66 807.752 709.659V715.936H805.925V704.823H807.645ZM822.56 704.565C826.086 704.565 827.956 707.123 827.956 710.39C827.956 713.636 826.086 716.194 822.56 716.194C819.035 716.194 817.165 713.636 817.165 710.39C817.165 707.123 819.035 704.565 822.56 704.565ZM819.1 710.39C819.1 713.077 820.647 714.582 822.56 714.582C824.474 714.582 826.021 713.077 826.021 710.39C826.021 707.682 824.474 706.177 822.56 706.177C820.647 706.177 819.1 707.682 819.1 710.39ZM830.046 715.936V700.588H831.873V715.936H830.046ZM839.354 704.565C842.879 704.565 844.749 707.123 844.749 710.39C844.749 713.636 842.879 716.194 839.354 716.194C835.828 716.194 833.958 713.636 833.958 710.39C833.958 707.123 835.828 704.565 839.354 704.565ZM835.893 710.39C835.893 713.077 837.441 714.582 839.354 714.582C841.267 714.582 842.814 713.077 842.814 710.39C842.814 707.682 841.267 706.177 839.354 706.177C837.441 706.177 835.893 707.682 835.893 710.39ZM851.353 720.514C848.494 720.514 846.968 719.353 846.43 716.903H848.343C848.773 718.3 849.741 718.924 851.353 718.924C853.954 718.924 854.749 717.44 854.749 714.668V714.066H854.728C854.126 715.42 852.664 716.086 851.267 716.086C847.957 716.086 846.301 713.464 846.301 710.433C846.301 707.81 847.591 704.565 851.439 704.565C852.836 704.565 854.083 705.21 854.749 706.413H854.771V704.823H856.49V715.57C856.49 718.795 854.491 720.514 851.353 720.514ZM848.236 710.239C848.236 712.239 848.967 714.453 851.374 714.453C853.782 714.453 854.685 712.26 854.685 710.153C854.685 708.219 853.825 706.198 851.525 706.198C849.182 706.198 848.236 708.09 848.236 710.239ZM859.12 715.936V704.823H860.947V715.936H859.12ZM858.905 702.824V700.588H861.162V702.824H858.905ZM868.297 716.194C865.137 716.194 863.074 713.915 863.074 710.39C863.074 706.886 865.073 704.565 868.233 704.565C871.392 704.565 873.305 706.886 873.305 710.39C873.305 710.583 873.305 710.777 873.284 710.97H864.944C865.137 713.077 866.276 714.603 868.297 714.603C869.716 714.603 870.79 713.808 871.306 712.389H873.198C872.575 714.753 870.812 716.194 868.297 716.194ZM865.008 709.337H871.392C871.091 707.338 869.931 706.134 868.233 706.134C866.384 706.134 865.288 707.488 865.008 709.337ZM879.494 716.194C876.399 716.194 874.7 714.431 874.7 712.389H876.613C876.742 713.808 877.667 714.646 879.494 714.646C881.106 714.646 882.181 714.001 882.181 712.948C882.181 712.196 881.536 711.68 880.203 711.4L878.29 710.992C876.033 710.519 874.98 709.38 874.98 707.875C874.98 705.897 876.678 704.565 879.279 704.565C882.03 704.565 883.728 706.177 883.793 708.24H881.901C881.751 706.671 880.698 706.048 879.279 706.048C877.796 706.048 876.807 706.757 876.807 707.746C876.807 708.52 877.516 709.036 878.849 709.294L880.762 709.659C883.17 710.11 884.072 711.207 884.072 712.819C884.072 714.796 882.245 716.194 879.494 716.194Z" fill="#0E0E0E"/>
</svg>
